<svg height="314pt" preserveAspectRatio="xMidYMid meet" viewBox="0 0 314 314" width="314pt" xmlns="http://www.w3.org/2000/svg"><g transform="matrix(.1 0 0 -.1 0 314)"><path d="m1867 2939c7-7 15-10 18-7s-2 9-12 12c-14 6-15 5-6-5z"/><path d="m1650 2925c0-7-36-12-92-13-51-1-104-4-118-7-62-12-97-17-125-19-16 0-32-4-35-8s-20-10-38-13c-45-8-159-51-214-81-32-17-41-18-32-1 4 6 4 9 0 5-4-3-8-10-8-15-1-10-76-53-94-53-35 0-147-73-144-95 0-3-4-13-9-23-12-19-12-17-15 58l-1 45-82 3-83 3v-92c0-51-2-90-4-88-6 5-14 85-15 142l-1 37h-89c-50 0-92-4-95-9s-6-154-6-330c-1-301-2-326-21-374-12-29-23-61-26-72-2-11-6-27-8-35s-4-23-4-33c-1-12-5-16-13-11-10 6-10 5-1-8 7-8 10-17 7-20s-7-23-10-44-10-45-17-53-7-12-2-9c11 7 12-248 1-259-3-3-1-12 4-18 6-7 11-33 12-59 1-25 6-46 10-46s7-8 7-17c-1-18 8-78 11-78s12-40 13-57c1-10 4-18 7-18s12-17 19-37c17-52 39-101 62-145 11-21 17-43 13-50-4-6-3-8 3-5 25 16 33-49 33-282 0-179 3-241 12-248 21-15 168-10 178 7 5 8 7 17 4 21-2 4-6 31-9 59-3 36-1 49 7 44 7-5 8-3 2 7-13 22-15 47-3 54 7 5 6 11-1 21-7 7-10 18-8 24 4 13 64-39 60-52-1-4 2-7 7-6 5 2 25-12 44-29 20-18 41-33 47-33s8-4 5-10c-3-5-1-10 5-10 21 0 70-41 64-52-4-6-2-8 3-5 10 6 47-26 39-34-2-2 11-5 29-6 35-3 138-47 129-56-3-3 1-5 8-4 30 1 49-4 44-11-2-4 3-8 12-9 9 0 61-13 115-27 113-31 129-35 174-38 18-1 33-5 33-8s49-5 110-4c75 0 107-3 103-10-5-7-2-7 8 0 13 11 36 14 126 17 22 1 39 5 37 8-2 4 18 10 44 14s71 15 100 25 50 15 48 11c-3-4 16 2 42 15 25 12 50 20 54 18 5-3 8-1 8 4 0 9 31 21 53 21 4 0 14 6 21 13 9 9 42 13 108 12 53-1 101 2 108 6s12 27 12 50l-1 42 18-33c26-49 82-74 161-73 39 0 77 7 96 17 59 31 62 44 66 271 2 118-1 207-6 209-14 5 2 55 23 76 11 11 16 22 13 26-4 3-2 9 4 13 5 4 17 27 27 52 9 25 22 59 28 75 7 17 13 35 15 40 23 77 35 125 39 148 29 172 34 282 21 409-4 37-8 71-8 75 0 5-4 16-10 27-7 14-7 17 2 11 9-5 9-3 2 11-5 11-15 44-23 74-7 30-14 57-14 60-1 3-7 18-13 33-7 16-10 32-7 37s0 10-6 12-13 33-16 68c-3 36-9 70-15 77-6 8-6 19 1 32 7 12 11 94 11 210 0 189 0 190-26 220-33 40-77 51-201 51-114 0-116-2-113-78 3-63 1-69-15-48-8 11-15 27-15 35 0 41-86 101-144 101-14 0-63 20-111 45-47 24-129 59-183 77-53 18-99 36-100 41-2 4-8 5-12 2-16-10-90 7-83 19 4 8 2 8-7-1-8-7-22-8-42-2-17 4-34 6-39 4-4-3-10-2-13 3s-19 7-37 4c-20-3-34 0-40 9-5 8-9 9-9 4zm1035-456c1-54-3-99-7-99-9 0-10 10-10 115 0 93 1 100 9 91 4-4 8-52 8-107zm-82-1864c1-37-1-69-5-71-9-5-11 17-10 81 1 61 2 69 7 63 3-3 7-36 8-73z"/><path d="m190 1820c0-5 5-10 11-10 5 0 7 5 4 10-3 6-8 10-11 10-2 0-4-4-4-10z"/><path d="m236 1262c-3-5 1-9 9-9s12 4 9 9c-3 4-7 8-9 8s-6-4-9-8z"/><path d="m269 1183c-13-16-12-17 4-4 9 7 17 15 17 17 0 8-8 3-21-13z"/><path d="m665 540c-3-6 1-7 9-4 18 7 21 14 7 14-6 0-13-4-16-10z"/><path d="m870 380c0-5 5-10 11-10 5 0 7 5 4 10-3 6-8 10-11 10-2 0-4-4-4-10z"/><path d="m1076 293c-6-14-5-15 5-6 7 7 10 15 7 18s-9-2-12-12z"/><path d="m1505 180c-3-6 1-7 9-4 18 7 21 14 7 14-6 0-13-4-16-10z"/></g></svg>