<svg xmlns="http://www.w3.org/2000/svg" xmlns:xlink="http://www.w3.org/1999/xlink">
    <symbol id="bitcoin" viewBox="0 0 128 128">
        <style type="text/css"/>
        <path class="st0" d="M109.8 75.7c-.8-5.7-3.6-10.1-8.6-13-2.3-1.3-4.8-2.2-7.4-3.3.3-.2.5-.4.7-.5 12.5-6.4 11.4-25.7 2.3-32.3-3.7-2.7-7.8-4.4-12.1-5.4-3.1-.7-6.2-1.2-9.4-1.7 0-5.6.1-13.3.1-19.5H63.7c-.1 6.1-.1 13.6-.2 19.1h-9.4c0-5.5.1-13 .1-19.1H42.6c-.1 6.2-.1 13.9-.2 19.4-8-.1-15.7-.1-23.7-.2 0 4.3-.1 8.3-.1 12.5 1.7 0 3.2 0 4.6.1 1.5 0 3 0 4.4.1 4.1.3 6.2 2.6 6.2 6.6-.2 16.7-.4 33.5-.5 50.2 0 3.7-1.6 5.1-5.2 5.1h-7.8c-.8 4.7-1.6 9.2-2.4 13.9 7.9.1 15.7.2 23.7.3 0 6-.1 13.6-.1 19.9h11.7c.1-6.3.1-13.7.2-19.6 3.3.1 6.3.2 9.4.3 0 6-.1 13.3-.1 19.4h11.7c.1-6.3.1-13.7.2-19.5.4-.1.7-.1 1-.2 5.6-.9 11.3-1.4 16.7-2.7 7.1-1.8 12.7-5.9 15.7-12.9 2.1-5.4 2.6-11.1 1.8-17zM54.3 32.9c7.3 0 14.4-.6 21 2.4 4.4 1.9 6.6 5.5 6.3 9.8-.3 4.6-2.9 7.9-7.6 9.4-6.4 2.1-13.1 2-20 1.7.1-7.6.2-15.2.3-23.3zm25.5 58.4c-6.5 2.9-13.3 2.9-20.2 3-1.9 0-3.8-.1-5.9-.1l.3-25.9c8.9 0 17.7-.7 26 3 4.3 1.9 6.8 5.2 6.8 10.1-.1 4.9-2.7 8-7 9.9z"/>
    </symbol>
    <symbol id="facebook" viewBox="0 0 512 512">
        <path d="M211.9 197.4h-36.7v59.9h36.7V433.1h70.5V256.5h49.2l5.2-59.1h-54.4c0 0 0-22.1 0-33.7 0-13.9 2.8-19.5 16.3-19.5 10.9 0 38.2 0 38.2 0V82.9c0 0-40.2 0-48.8 0 -52.5 0-76.1 23.1-76.1 67.3C211.9 188.8 211.9 197.4 211.9 197.4z"/>
    </symbol>
    <symbol id="instagram" viewBox="0 0 24 24">
        <path d="M12 0C8.74 0 8.333.015 7.053.072 5.775.132 4.905.333 4.14.63c-.789.306-1.459.717-2.126 1.384S.935 3.35.63 4.14C.333 4.905.131 5.775.072 7.053.012 8.333 0 8.74 0 12s.015 3.667.072 4.947c.06 1.277.261 2.148.558 2.913.306.788.717 1.459 1.384 2.126.667.666 1.336 1.079 2.126 1.384.766.296 1.636.499 2.913.558C8.333 23.988 8.74 24 12 24s3.667-.015 4.947-.072c1.277-.06 2.148-.262 2.913-.558.788-.306 1.459-.718 2.126-1.384.666-.667 1.079-1.335 1.384-2.126.296-.765.499-1.636.558-2.913.06-1.28.072-1.687.072-4.947s-.015-3.667-.072-4.947c-.06-1.277-.262-2.149-.558-2.913-.306-.789-.718-1.459-1.384-2.126C21.319 1.347 20.651.935 19.86.63c-.765-.297-1.636-.499-2.913-.558C15.667.012 15.26 0 12 0zm0 2.16c3.203 0 3.585.016 4.85.071 1.17.055 1.805.249 2.227.415.562.217.96.477 1.382.896.419.42.679.819.896 1.381.164.422.36 1.057.413 2.227.057 1.266.07 1.646.07 4.85s-.015 3.585-.074 4.85c-.061 1.17-.256 1.805-.421 2.227-.224.562-.479.96-.899 1.382-.419.419-.824.679-1.38.896-.42.164-1.065.36-2.235.413-1.274.057-1.649.07-4.859.07-3.211 0-3.586-.015-4.859-.074-1.171-.061-1.816-.256-2.236-.421-.569-.224-.96-.479-1.379-.899-.421-.419-.69-.824-.9-1.38-.165-.42-.359-1.065-.42-2.235-.045-1.26-.061-1.649-.061-4.844 0-3.196.016-3.586.061-4.861.061-1.17.255-1.814.42-2.234.21-.57.479-.96.9-1.381.419-.419.81-.689 1.379-.898.42-.166 1.051-.361 2.221-.421 1.275-.045 1.65-.06 4.859-.06l.045.03zm0 3.678c-3.405 0-6.162 2.76-6.162 6.162 0 3.405 2.76 6.162 6.162 6.162 3.405 0 6.162-2.76 6.162-6.162 0-3.405-2.76-6.162-6.162-6.162zM12 16c-2.21 0-4-1.79-4-4s1.79-4 4-4 4 1.79 4 4-1.79 4-4 4zm7.846-10.405c0 .795-.646 1.44-1.44 1.44-.795 0-1.44-.646-1.44-1.44 0-.794.646-1.439 1.44-1.439.793-.001 1.44.645 1.44 1.439z"/>
    </symbol>
    <symbol id="linkedin" viewBox="0 0 512 512">
        <path d="M186.4 142.4c0 19-15.3 34.5-34.2 34.5 -18.9 0-34.2-15.4-34.2-34.5 0-19 15.3-34.5 34.2-34.5C171.1 107.9 186.4 123.4 186.4 142.4zM181.4 201.3h-57.8V388.1h57.8V201.3zM273.8 201.3h-55.4V388.1h55.4c0 0 0-69.3 0-98 0-26.3 12.1-41.9 35.2-41.9 21.3 0 31.5 15 31.5 41.9 0 26.9 0 98 0 98h57.5c0 0 0-68.2 0-118.3 0-50-28.3-74.2-68-74.2 -39.6 0-56.3 30.9-56.3 30.9v-25.2H273.8z"/>
    </symbol>
    <symbol id="telegram" viewBox="0 0 24 24">
        <path d="M9.028 20.837c-.714 0-.593-.271-.839-.949l-2.103-6.92L22.263 3.37"/>
        <path d="M9.028 20.837c.552 0 .795-.252 1.105-.553l2.941-2.857-3.671-2.214"/>
        <path d="M9.403 15.213l8.89 6.568c1.015.56 1.748.271 2-.942l3.62-17.053c.372-1.487-.564-2.159-1.534-1.72L1.125 10.263c-1.45.582-1.443 1.392-.264 1.753l5.455 1.7L18.94 5.753c.595-.36 1.143-.167.694.232"/>
    </symbol>
    <symbol id="twitter" viewBox="0 0 24 24">
        <path d="M23.954 4.569c-.885.389-1.83.654-2.825.775 1.014-.611 1.794-1.574 2.163-2.723-.951.555-2.005.959-3.127 1.184-.896-.959-2.173-1.559-3.591-1.559-2.717 0-4.92 2.203-4.92 4.917 0 .39.045.765.127 1.124C7.691 8.094 4.066 6.13 1.64 3.161c-.427.722-.666 1.561-.666 2.475 0 1.71.87 3.213 2.188 4.096-.807-.026-1.566-.248-2.228-.616v.061c0 2.385 1.693 4.374 3.946 4.827-.413.111-.849.171-1.296.171-.314 0-.615-.03-.916-.086.631 1.953 2.445 3.377 4.604 3.417-1.68 1.319-3.809 2.105-6.102 2.105-.39 0-.779-.023-1.17-.067 2.189 1.394 4.768 2.209 7.557 2.209 9.054 0 13.999-7.496 13.999-13.986 0-.209 0-.42-.015-.63.961-.689 1.8-1.56 2.46-2.548l-.047-.02z"/>
    </symbol>
</svg>